ply
format ascii 1.0
element vertex 343
property float end_x
property float end_y
property float end_z
property int path_id
property int group_id
end_header
1.425277 -1.403063 0.000000 0 0
1.425277 -1.403063 0.000000 1 0
1.425277 -1.403063 0.000000 2 0
1.425277 -1.403063 0.000000 3 0
1.425277 -1.403063 0.000000 4 0
1.425277 -1.403063 0.000000 5 0
1.425277 -1.403063 0.000000 6 0
1.560861 -1.250485 0.000000 7 0
1.560861 -1.250485 0.000000 8 0
1.560861 -1.250485 0.000000 9 0
1.560861 -1.250485 0.000000 10 0
1.560861 -1.250485 0.000000 11 0
1.560861 -1.250485 0.000000 12 0
1.560861 -1.250485 0.000000 13 0
1.680187 -1.084883 0.000000 14 0
1.680187 -1.084883 0.000000 15 0
1.680187 -1.084883 0.000000 16 0
1.680187 -1.084883 0.000000 17 0
1.680187 -1.084883 0.000000 18 0
1.680187 -1.084883 0.000000 19 0
1.680187 -1.084883 0.000000 20 0
1.782013 -0.907981 0.000000 21 0
1.782013 -0.907981 0.000000 22 0
1.782013 -0.907981 0.000000 23 0
1.782013 -0.907981 0.000000 24 0
1.782013 -0.907981 0.000000 25 0
1.782013 -0.907981 0.000000 26 0
1.782013 -0.907981 0.000000 27 0
1.865278 -0.721622 0.000000 28 0
1.865278 -0.721622 0.000000 29 0
1.865278 -0.721622 0.000000 30 0
1.865278 -0.721622 0.000000 31 0
1.865278 -0.721622 0.000000 32 0
1.865278 -0.721622 0.000000 33 0
1.865278 -0.721622 0.000000 34 0
1.929115 -0.527746 0.000000 35 0
1.929115 -0.527746 0.000000 36 0
1.929115 -0.527746 0.000000 37 0
1.929115 -0.527746 0.000000 38 0
1.929115 -0.527746 0.000000 39 0
1.929115 -0.527746 0.000000 40 0
1.929115 -0.527746 0.000000 41 0
1.972859 -0.328374 0.000000 42 0
1.972859 -0.328374 0.000000 43 0
1.972859 -0.328374 0.000000 44 0
1.972859 -0.328374 0.000000 45 0
1.972859 -0.328374 0.000000 46 0
1.972859 -0.328374 0.000000 47 0
1.972859 -0.328374 0.000000 48 0
1.627217 -1.162826 0.000000 49 1
1.627217 -1.162826 0.000000 50 1
1.627217 -1.162826 0.000000 51 1
1.627217 -1.162826 0.000000 52 1
1.627217 -1.162826 0.000000 53 1
1.627217 -1.162826 0.000000 54 1
1.627217 -1.162826 0.000000 55 1
1.737263 -0.990917 0.000000 56 1
1.737263 -0.990917 0.000000 57 1
1.737263 -0.990917 0.000000 58 1
1.737263 -0.990917 0.000000 59 1
1.737263 -0.990917 0.000000 60 1
1.737263 -0.990917 0.000000 61 1
1.737263 -0.990917 0.000000 62 1
1.829214 -0.808687 0.000000 63 1
1.829214 -0.808687 0.000000 64 1
1.829214 -0.808687 0.000000 65 1
1.829214 -0.808687 0.000000 66 1
1.829214 -0.808687 0.000000 67 1
1.829214 -0.808687 0.000000 68 1
1.829214 -0.808687 0.000000 69 1
1.902113 -0.618034 0.000000 70 1
1.902113 -0.618034 0.000000 71 1
1.902113 -0.618034 0.000000 72 1
1.902113 -0.618034 0.000000 73 1
1.902113 -0.618034 0.000000 74 1
1.902113 -0.618034 0.000000 75 1
1.902113 -0.618034 0.000000 76 1
1.955200 -0.420944 0.000000 77 1
1.955200 -0.420944 0.000000 78 1
1.955200 -0.420944 0.000000 79 1
1.955200 -0.420944 0.000000 80 1
1.955200 -0.420944 0.000000 81 1
1.955200 -0.420944 0.000000 82 1
1.955200 -0.420944 0.000000 83 1
1.987922 -0.219469 0.000000 84 1
1.987922 -0.219469 0.000000 85 1
1.987922 -0.219469 0.000000 86 1
1.987922 -0.219469 0.000000 87 1
1.987922 -0.219469 0.000000 88 1
1.987922 -0.219469 0.000000 89 1
1.987922 -0.219469 0.000000 90 1
1.999938 -0.015708 0.000000 91 1
1.999938 -0.015708 0.000000 92 1
1.999938 -0.015708 0.000000 93 1
1.999938 -0.015708 0.000000 94 1
1.999938 -0.015708 0.000000 95 1
1.999938 -0.015708 0.000000 96 1
1.999938 -0.015708 0.000000 97 1
1.789089 -0.893957 0.000000 98 2
1.789089 -0.893957 0.000000 99 2
1.789089 -0.893957 0.000000 100 2
1.789089 -0.893957 0.000000 101 2
1.789089 -0.893957 0.000000 102 2
1.789089 -0.893957 0.000000 103 2
1.789089 -0.893957 0.000000 104 2
1.870888 -0.706950 0.000000 105 2
1.870888 -0.706950 0.000000 106 2
1.870888 -0.706950 0.000000 107 2
1.870888 -0.706950 0.000000 108 2
1.870888 -0.706950 0.000000 109 2
1.870888 -0.706950 0.000000 110 2
1.870888 -0.706950 0.000000 111 2
1.933200 -0.512579 0.000000 112 2
1.933200 -0.512579 0.000000 113 2
1.933200 -0.512579 0.000000 114 2
1.933200 -0.512579 0.000000 115 2
1.933200 -0.512579 0.000000 116 2
1.933200 -0.512579 0.000000 117 2
1.933200 -0.512579 0.000000 118 2
1.975377 -0.312869 0.000000 119 2
1.975377 -0.312869 0.000000 120 2
1.975377 -0.312869 0.000000 121 2
1.975377 -0.312869 0.000000 122 2
1.975377 -0.312869 0.000000 123 2
1.975377 -0.312869 0.000000 124 2
1.975377 -0.312869 0.000000 125 2
1.996978 -0.109900 0.000000 126 2
1.996978 -0.109900 0.000000 127 2
1.996978 -0.109900 0.000000 128 2
1.996978 -0.109900 0.000000 129 2
1.996978 -0.109900 0.000000 130 2
1.996978 -0.109900 0.000000 131 2
1.996978 -0.109900 0.000000 132 2
1.997780 0.094213 0.000000 133 2
1.997780 0.094213 0.000000 134 2
1.997780 0.094213 0.000000 135 2
1.997780 0.094213 0.000000 136 2
1.997780 0.094213 0.000000 137 2
1.997780 0.094213 0.000000 138 2
1.997780 0.094213 0.000000 139 2
1.977773 0.297345 0.000000 140 2
1.977773 0.297345 0.000000 141 2
1.977773 0.297345 0.000000 142 2
1.977773 0.297345 0.000000 143 2
1.977773 0.297345 0.000000 144 2
1.977773 0.297345 0.000000 145 2
1.977773 0.297345 0.000000 146 2
1.906908 -0.603076 0.000000 147 3
1.906908 -0.603076 0.000000 148 3
1.906908 -0.603076 0.000000 149 3
1.906908 -0.603076 0.000000 150 3
1.906908 -0.603076 0.000000 151 3
1.906908 -0.603076 0.000000 152 3
1.906908 -0.603076 0.000000 153 3
1.958446 -0.405575 0.000000 154 3
1.958446 -0.405575 0.000000 155 3
1.958446 -0.405575 0.000000 156 3
1.958446 -0.405575 0.000000 157 3
1.958446 -0.405575 0.000000 158 3
1.958446 -0.405575 0.000000 159 3
1.958446 -0.405575 0.000000 160 3
1.989584 -0.203849 0.000000 161 3
1.989584 -0.203849 0.000000 162 3
1.989584 -0.203849 0.000000 163 3
1.989584 -0.203849 0.000000 164 3
1.989584 -0.203849 0.000000 165 3
1.989584 -0.203849 0.000000 166 3
1.989584 -0.203849 0.000000 167 3
2.000000 0.000000 0.000000 168 3
2.000000 0.000000 0.000000 169 3
2.000000 0.000000 0.000000 170 3
2.000000 0.000000 0.000000 171 3
2.000000 0.000000 0.000000 172 3
2.000000 0.000000 0.000000 173 3
2.000000 0.000000 0.000000 174 3
1.989584 0.203849 0.000000 175 3
1.989584 0.203849 0.000000 176 3
1.989584 0.203849 0.000000 177 3
1.989584 0.203849 0.000000 178 3
1.989584 0.203849 0.000000 179 3
1.989584 0.203849 0.000000 180 3
1.989584 0.203849 0.000000 181 3
1.958446 0.405575 0.000000 182 3
1.958446 0.405575 0.000000 183 3
1.958446 0.405575 0.000000 184 3
1.958446 0.405575 0.000000 185 3
1.958446 0.405575 0.000000 186 3
1.958446 0.405575 0.000000 187 3
1.958446 0.405575 0.000000 188 3
1.906908 0.603076 0.000000 189 3
1.906908 0.603076 0.000000 190 3
1.906908 0.603076 0.000000 191 3
1.906908 0.603076 0.000000 192 3
1.906908 0.603076 0.000000 193 3
1.906908 0.603076 0.000000 194 3
1.906908 0.603076 0.000000 195 3
1.977773 -0.297345 0.000000 196 4
1.977773 -0.297345 0.000000 197 4
1.977773 -0.297345 0.000000 198 4
1.977773 -0.297345 0.000000 199 4
1.977773 -0.297345 0.000000 200 4
1.977773 -0.297345 0.000000 201 4
1.977773 -0.297345 0.000000 202 4
1.997780 -0.094213 0.000000 203 4
1.997780 -0.094213 0.000000 204 4
1.997780 -0.094213 0.000000 205 4
1.997780 -0.094213 0.000000 206 4
1.997780 -0.094213 0.000000 207 4
1.997780 -0.094213 0.000000 208 4
1.997780 -0.094213 0.000000 209 4
1.996978 0.109900 0.000000 210 4
1.996978 0.109900 0.000000 211 4
1.996978 0.109900 0.000000 212 4
1.996978 0.109900 0.000000 213 4
1.996978 0.109900 0.000000 214 4
1.996978 0.109900 0.000000 215 4
1.996978 0.109900 0.000000 216 4
1.975377 0.312869 0.000000 217 4
1.975377 0.312869 0.000000 218 4
1.975377 0.312869 0.000000 219 4
1.975377 0.312869 0.000000 220 4
1.975377 0.312869 0.000000 221 4
1.975377 0.312869 0.000000 222 4
1.975377 0.312869 0.000000 223 4
1.933200 0.512579 0.000000 224 4
1.933200 0.512579 0.000000 225 4
1.933200 0.512579 0.000000 226 4
1.933200 0.512579 0.000000 227 4
1.933200 0.512579 0.000000 228 4
1.933200 0.512579 0.000000 229 4
1.933200 0.512579 0.000000 230 4
1.870888 0.706950 0.000000 231 4
1.870888 0.706950 0.000000 232 4
1.870888 0.706950 0.000000 233 4
1.870888 0.706950 0.000000 234 4
1.870888 0.706950 0.000000 235 4
1.870888 0.706950 0.000000 236 4
1.870888 0.706950 0.000000 237 4
1.789089 0.893957 0.000000 238 4
1.789089 0.893957 0.000000 239 4
1.789089 0.893957 0.000000 240 4
1.789089 0.893957 0.000000 241 4
1.789089 0.893957 0.000000 242 4
1.789089 0.893957 0.000000 243 4
1.789089 0.893957 0.000000 244 4
1.999938 0.015708 0.000000 245 5
1.999938 0.015708 0.000000 246 5
1.999938 0.015708 0.000000 247 5
1.999938 0.015708 0.000000 248 5
1.999938 0.015708 0.000000 249 5
1.999938 0.015708 0.000000 250 5
1.999938 0.015708 0.000000 251 5
1.987922 0.219469 0.000000 252 5
1.987922 0.219469 0.000000 253 5
1.987922 0.219469 0.000000 254 5
1.987922 0.219469 0.000000 255 5
1.987922 0.219469 0.000000 256 5
1.987922 0.219469 0.000000 257 5
1.987922 0.219469 0.000000 258 5
1.955200 0.420944 0.000000 259 5
1.955200 0.420944 0.000000 260 5
1.955200 0.420944 0.000000 261 5
1.955200 0.420944 0.000000 262 5
1.955200 0.420944 0.000000 263 5
1.955200 0.420944 0.000000 264 5
1.955200 0.420944 0.000000 265 5
1.902113 0.618034 0.000000 266 5
1.902113 0.618034 0.000000 267 5
1.902113 0.618034 0.000000 268 5
1.902113 0.618034 0.000000 269 5
1.902113 0.618034 0.000000 270 5
1.902113 0.618034 0.000000 271 5
1.902113 0.618034 0.000000 272 5
1.829214 0.808687 0.000000 273 5
1.829214 0.808687 0.000000 274 5
1.829214 0.808687 0.000000 275 5
1.829214 0.808687 0.000000 276 5
1.829214 0.808687 0.000000 277 5
1.829214 0.808687 0.000000 278 5
1.829214 0.808687 0.000000 279 5
1.737263 0.990917 0.000000 280 5
1.737263 0.990917 0.000000 281 5
1.737263 0.990917 0.000000 282 5
1.737263 0.990917 0.000000 283 5
1.737263 0.990917 0.000000 284 5
1.737263 0.990917 0.000000 285 5
1.737263 0.990917 0.000000 286 5
1.627217 1.162826 0.000000 287 5
1.627217 1.162826 0.000000 288 5
1.627217 1.162826 0.000000 289 5
1.627217 1.162826 0.000000 290 5
1.627217 1.162826 0.000000 291 5
1.627217 1.162826 0.000000 292 5
1.627217 1.162826 0.000000 293 5
1.972859 0.328374 0.000000 294 6
1.972859 0.328374 0.000000 295 6
1.972859 0.328374 0.000000 296 6
1.972859 0.328374 0.000000 297 6
1.972859 0.328374 0.000000 298 6
1.972859 0.328374 0.000000 299 6
1.972859 0.328374 0.000000 300 6
1.929115 0.527746 0.000000 301 6
1.929115 0.527746 0.000000 302 6
1.929115 0.527746 0.000000 303 6
1.929115 0.527746 0.000000 304 6
1.929115 0.527746 0.000000 305 6
1.929115 0.527746 0.000000 306 6
1.929115 0.527746 0.000000 307 6
1.865278 0.721622 0.000000 308 6
1.865278 0.721622 0.000000 309 6
1.865278 0.721622 0.000000 310 6
1.865278 0.721622 0.000000 311 6
1.865278 0.721622 0.000000 312 6
1.865278 0.721622 0.000000 313 6
1.865278 0.721622 0.000000 314 6
1.782013 0.907981 0.000000 315 6
1.782013 0.907981 0.000000 316 6
1.782013 0.907981 0.000000 317 6
1.782013 0.907981 0.000000 318 6
1.782013 0.907981 0.000000 319 6
1.782013 0.907981 0.000000 320 6
1.782013 0.907981 0.000000 321 6
1.680187 1.084883 0.000000 322 6
1.680187 1.084883 0.000000 323 6
1.680187 1.084883 0.000000 324 6
1.680187 1.084883 0.000000 325 6
1.680187 1.084883 0.000000 326 6
1.680187 1.084883 0.000000 327 6
1.680187 1.084883 0.000000 328 6
1.560861 1.250485 0.000000 329 6
1.560861 1.250485 0.000000 330 6
1.560861 1.250485 0.000000 331 6
1.560861 1.250485 0.000000 332 6
1.560861 1.250485 0.000000 333 6
1.560861 1.250485 0.000000 334 6
1.560861 1.250485 0.000000 335 6
1.425277 1.403063 0.000000 336 6
1.425277 1.403063 0.000000 337 6
1.425277 1.403063 0.000000 338 6
1.425277 1.403063 0.000000 339 6
1.425277 1.403063 0.000000 340 6
1.425277 1.403063 0.000000 341 6
1.425277 1.403063 0.000000 342 6