ply
format ascii 1.0
element vertex 343
property float end_x
property float end_y
property float end_z
property int path_id
property int group_id
end_header
0.891007 -0.453990 0.000000 0 0
0.897763 -0.462733 0.000000 1 0
0.897759 -0.462740 0.000000 2 0
0.897756 -0.462747 0.000000 3 0
0.897752 -0.462754 0.000000 4 0
0.897748 -0.462761 0.000000 5 0
0.897745 -0.462768 0.000000 6 0
0.897783 -0.462694 0.000000 7 0
0.897779 -0.462701 0.000000 8 0
0.897776 -0.462708 0.000000 9 0
0.897772 -0.462715 0.000000 10 0
0.897769 -0.462722 0.000000 11 0
0.897765 -0.462729 0.000000 12 0
0.897761 -0.462736 0.000000 13 0
0.897799 -0.462662 0.000000 14 0
0.897796 -0.462669 0.000000 15 0
0.897792 -0.462676 0.000000 16 0
0.897789 -0.462683 0.000000 17 0
0.897785 -0.462690 0.000000 18 0
0.897782 -0.462697 0.000000 19 0
0.897778 -0.462704 0.000000 20 0
0.897816 -0.462630 0.000000 21 0
0.897812 -0.462637 0.000000 22 0
0.897809 -0.462644 0.000000 23 0
0.897805 -0.462651 0.000000 24 0
0.897802 -0.462658 0.000000 25 0
0.897798 -0.462665 0.000000 26 0
0.897795 -0.462672 0.000000 27 0
0.897833 -0.462598 0.000000 28 0
0.897829 -0.462605 0.000000 29 0
0.897825 -0.462612 0.000000 30 0
0.897822 -0.462619 0.000000 31 0
0.897818 -0.462626 0.000000 32 0
0.897815 -0.462633 0.000000 33 0
0.897811 -0.462639 0.000000 34 0
0.897849 -0.462566 0.000000 35 0
0.897845 -0.462573 0.000000 36 0
0.897842 -0.462580 0.000000 37 0
0.897838 -0.462587 0.000000 38 0
0.897835 -0.462593 0.000000 39 0
0.897831 -0.462600 0.000000 40 0
0.897828 -0.462607 0.000000 41 0
0.897866 -0.462534 0.000000 42 0
0.897862 -0.462541 0.000000 43 0
0.897858 -0.462548 0.000000 44 0
0.897855 -0.462554 0.000000 45 0
0.897851 -0.462561 0.000000 46 0
0.897848 -0.462568 0.000000 47 0
0.897844 -0.462575 0.000000 48 0
0.959582 -0.315122 0.000000 49 1
0.959580 -0.315129 0.000000 50 1
0.959577 -0.315137 0.000000 51 1
0.959575 -0.315144 0.000000 52 1
0.959573 -0.315152 0.000000 53 1
0.959570 -0.315159 0.000000 54 1
0.959568 -0.315166 0.000000 55 1
0.959594 -0.315088 0.000000 56 1
0.959591 -0.315095 0.000000 57 1
0.959589 -0.315102 0.000000 58 1
0.959586 -0.315110 0.000000 59 1
0.959584 -0.315117 0.000000 60 1
0.959581 -0.315125 0.000000 61 1
0.959579 -0.315132 0.000000 62 1
0.959605 -0.315053 0.000000 63 1
0.959602 -0.315061 0.000000 64 1
0.959600 -0.315068 0.000000 65 1
0.959598 -0.315075 0.000000 66 1
0.959595 -0.315083 0.000000 67 1
0.959593 -0.315090 0.000000 68 1
0.959590 -0.315098 0.000000 69 1
0.959616 -0.315019 0.000000 70 1
0.959614 -0.315026 0.000000 71 1
0.959611 -0.315034 0.000000 72 1
0.959609 -0.315041 0.000000 73 1
0.959606 -0.315049 0.000000 74 1
0.959604 -0.315056 0.000000 75 1
0.959602 -0.315063 0.000000 76 1
0.959627 -0.314985 0.000000 77 1
0.959625 -0.314992 0.000000 78 1
0.959623 -0.314999 0.000000 79 1
0.959620 -0.315007 0.000000 80 1
0.959618 -0.315014 0.000000 81 1
0.959615 -0.315022 0.000000 82 1
0.959613 -0.315029 0.000000 83 1
0.959639 -0.314950 0.000000 84 1
0.959636 -0.314958 0.000000 85 1
0.959634 -0.314965 0.000000 86 1
0.959631 -0.314973 0.000000 87 1
0.959629 -0.314980 0.000000 88 1
0.959626 -0.314987 0.000000 89 1
0.959624 -0.314995 0.000000 90 1
0.959650 -0.314916 0.000000 91 1
0.959647 -0.314923 0.000000 92 1
0.959645 -0.314931 0.000000 93 1
0.959643 -0.314938 0.000000 94 1
0.959640 -0.314946 0.000000 95 1
0.959638 -0.314953 0.000000 96 1
0.959635 -0.314960 0.000000 97 1
0.997309 -0.159607 0.000000 98 2
0.997308 -0.159614 0.000000 99 2
0.997307 -0.159622 0.000000 100 2
0.997306 -0.159630 0.000000 101 2
0.997304 -0.159638 0.000000 102 2
0.997303 -0.159645 0.000000 103 2
0.997302 -0.159653 0.000000 104 2
0.997315 -0.159571 0.000000 105 2
0.997314 -0.159579 0.000000 106 2
0.997312 -0.159586 0.000000 107 2
0.997311 -0.159594 0.000000 108 2
0.997310 -0.159602 0.000000 109 2
0.997309 -0.159610 0.000000 110 2
0.997308 -0.159617 0.000000 111 2
0.997321 -0.159535 0.000000 112 2
0.997319 -0.159543 0.000000 113 2
0.997318 -0.159551 0.000000 114 2
0.997317 -0.159559 0.000000 115 2
0.997316 -0.159566 0.000000 116 2
0.997314 -0.159574 0.000000 117 2
0.997313 -0.159582 0.000000 118 2
0.997326 -0.159500 0.000000 119 2
0.997325 -0.159507 0.000000 120 2
0.997324 -0.159515 0.000000 121 2
0.997323 -0.159523 0.000000 122 2
0.997321 -0.159531 0.000000 123 2
0.997320 -0.159538 0.000000 124 2
0.997319 -0.159546 0.000000 125 2
0.997332 -0.159464 0.000000 126 2
0.997331 -0.159472 0.000000 127 2
0.997330 -0.159480 0.000000 128 2
0.997328 -0.159487 0.000000 129 2
0.997327 -0.159495 0.000000 130 2
0.997326 -0.159503 0.000000 131 2
0.997325 -0.159510 0.000000 132 2
0.997338 -0.159428 0.000000 133 2
0.997337 -0.159436 0.000000 134 2
0.997335 -0.159444 0.000000 135 2
0.997334 -0.159452 0.000000 136 2
0.997333 -0.159459 0.000000 137 2
0.997332 -0.159467 0.000000 138 2
0.997330 -0.159475 0.000000 139 2
0.997343 -0.159393 0.000000 140 2
0.997342 -0.159401 0.000000 141 2
0.997341 -0.159408 0.000000 142 2
0.997340 -0.159416 0.000000 143 2
0.997339 -0.159424 0.000000 144 2
0.997337 -0.159431 0.000000 145 2
0.997336 -0.159439 0.000000 146 2
1.010000 -0.000085 0.000000 147 3
1.010000 -0.000093 0.000000 148 3
1.010000 -0.000101 0.000000 149 3
1.010000 -0.000108 0.000000 150 3
1.010000 -0.000116 0.000000 151 3
1.010000 -0.000124 0.000000 152 3
1.010000 -0.000132 0.000000 153 3
1.010000 -0.000049 0.000000 154 3
1.010000 -0.000057 0.000000 155 3
1.010000 -0.000064 0.000000 156 3
1.010000 -0.000072 0.000000 157 3
1.010000 -0.000080 0.000000 158 3
1.010000 -0.000088 0.000000 159 3
1.010000 -0.000096 0.000000 160 3
1.010000 -0.000013 0.000000 161 3
1.010000 -0.000020 0.000000 162 3
1.010000 -0.000028 0.000000 163 3
1.010000 -0.000036 0.000000 164 3
1.010000 -0.000044 0.000000 165 3
1.010000 -0.000052 0.000000 166 3
1.010000 -0.000060 0.000000 167 3
1.010000 0.000023 0.000000 168 3
1.010000 0.000016 0.000000 169 3
1.010000 0.000008 0.000000 170 3
1.010000 0.000000 0.000000 171 3
1.010000 -0.000008 0.000000 172 3
1.010000 -0.000016 0.000000 173 3
1.010000 -0.000023 0.000000 174 3
1.010000 0.000060 0.000000 175 3
1.010000 0.000052 0.000000 176 3
1.010000 0.000044 0.000000 177 3
1.010000 0.000036 0.000000 178 3
1.010000 0.000028 0.000000 179 3
1.010000 0.000020 0.000000 180 3
1.010000 0.000013 0.000000 181 3
1.010000 0.000096 0.000000 182 3
1.010000 0.000088 0.000000 183 3
1.010000 0.000080 0.000000 184 3
1.010000 0.000072 0.000000 185 3
1.010000 0.000064 0.000000 186 3
1.010000 0.000057 0.000000 187 3
1.010000 0.000049 0.000000 188 3
1.010000 0.000132 0.000000 189 3
1.010000 0.000124 0.000000 190 3
1.010000 0.000116 0.000000 191 3
1.010000 0.000108 0.000000 192 3
1.010000 0.000101 0.000000 193 3
1.010000 0.000093 0.000000 194 3
1.010000 0.000085 0.000000 195 3
0.997336 0.159439 0.000000 196 4
0.997337 0.159431 0.000000 197 4
0.997339 0.159424 0.000000 198 4
0.997340 0.159416 0.000000 199 4
0.997341 0.159408 0.000000 200 4
0.997342 0.159401 0.000000 201 4
0.997343 0.159393 0.000000 202 4
0.997330 0.159475 0.000000 203 4
0.997332 0.159467 0.000000 204 4
0.997333 0.159459 0.000000 205 4
0.997334 0.159452 0.000000 206 4
0.997335 0.159444 0.000000 207 4
0.997337 0.159436 0.000000 208 4
0.997338 0.159428 0.000000 209 4
0.997325 0.159510 0.000000 210 4
0.997326 0.159503 0.000000 211 4
0.997327 0.159495 0.000000 212 4
0.997328 0.159487 0.000000 213 4
0.997330 0.159480 0.000000 214 4
0.997331 0.159472 0.000000 215 4
0.997332 0.159464 0.000000 216 4
0.997319 0.159546 0.000000 217 4
0.997320 0.159538 0.000000 218 4
0.997321 0.159531 0.000000 219 4
0.997323 0.159523 0.000000 220 4
0.997324 0.159515 0.000000 221 4
0.997325 0.159507 0.000000 222 4
0.997326 0.159500 0.000000 223 4
0.997313 0.159582 0.000000 224 4
0.997314 0.159574 0.000000 225 4
0.997316 0.159566 0.000000 226 4
0.997317 0.159559 0.000000 227 4
0.997318 0.159551 0.000000 228 4
0.997319 0.159543 0.000000 229 4
0.997321 0.159535 0.000000 230 4
0.997308 0.159617 0.000000 231 4
0.997309 0.159610 0.000000 232 4
0.997310 0.159602 0.000000 233 4
0.997311 0.159594 0.000000 234 4
0.997312 0.159586 0.000000 235 4
0.997314 0.159579 0.000000 236 4
0.997315 0.159571 0.000000 237 4
0.997302 0.159653 0.000000 238 4
0.997303 0.159645 0.000000 239 4
0.997304 0.159638 0.000000 240 4
0.997306 0.159630 0.000000 241 4
0.997307 0.159622 0.000000 242 4
0.997308 0.159614 0.000000 243 4
0.997309 0.159607 0.000000 244 4
0.959635 0.314960 0.000000 245 5
0.959638 0.314953 0.000000 246 5
0.959640 0.314946 0.000000 247 5
0.959643 0.314938 0.000000 248 5
0.959645 0.314931 0.000000 249 5
0.959647 0.314923 0.000000 250 5
0.959650 0.314916 0.000000 251 5
0.959624 0.314995 0.000000 252 5
0.959626 0.314987 0.000000 253 5
0.959629 0.314980 0.000000 254 5
0.959631 0.314973 0.000000 255 5
0.959634 0.314965 0.000000 256 5
0.959636 0.314958 0.000000 257 5
0.959639 0.314950 0.000000 258 5
0.959613 0.315029 0.000000 259 5
0.959615 0.315022 0.000000 260 5
0.959618 0.315014 0.000000 261 5
0.959620 0.315007 0.000000 262 5
0.959623 0.314999 0.000000 263 5
0.959625 0.314992 0.000000 264 5
0.959627 0.314985 0.000000 265 5
0.959602 0.315063 0.000000 266 5
0.959604 0.315056 0.000000 267 5
0.959606 0.315049 0.000000 268 5
0.959609 0.315041 0.000000 269 5
0.959611 0.315034 0.000000 270 5
0.959614 0.315026 0.000000 271 5
0.959616 0.315019 0.000000 272 5
0.959590 0.315098 0.000000 273 5
0.959593 0.315090 0.000000 274 5
0.959595 0.315083 0.000000 275 5
0.959598 0.315075 0.000000 276 5
0.959600 0.315068 0.000000 277 5
0.959602 0.315061 0.000000 278 5
0.959605 0.315053 0.000000 279 5
0.959579 0.315132 0.000000 280 5
0.959581 0.315125 0.000000 281 5
0.959584 0.315117 0.000000 282 5
0.959586 0.315110 0.000000 283 5
0.959589 0.315102 0.000000 284 5
0.959591 0.315095 0.000000 285 5
0.959594 0.315088 0.000000 286 5
0.959568 0.315166 0.000000 287 5
0.959570 0.315159 0.000000 288 5
0.959573 0.315152 0.000000 289 5
0.959575 0.315144 0.000000 290 5
0.959577 0.315137 0.000000 291 5
0.959580 0.315129 0.000000 292 5
0.959582 0.315122 0.000000 293 5
0.897844 0.462575 0.000000 294 6
0.897848 0.462568 0.000000 295 6
0.897851 0.462561 0.000000 296 6
0.897855 0.462554 0.000000 297 6
0.897858 0.462548 0.000000 298 6
0.897862 0.462541 0.000000 299 6
0.897866 0.462534 0.000000 300 6
0.897828 0.462607 0.000000 301 6
0.897831 0.462600 0.000000 302 6
0.897835 0.462593 0.000000 303 6
0.897838 0.462587 0.000000 304 6
0.897842 0.462580 0.000000 305 6
0.897845 0.462573 0.000000 306 6
0.897849 0.462566 0.000000 307 6
0.897811 0.462639 0.000000 308 6
0.897815 0.462633 0.000000 309 6
0.897818 0.462626 0.000000 310 6
0.897822 0.462619 0.000000 311 6
0.897825 0.462612 0.000000 312 6
0.897829 0.462605 0.000000 313 6
0.897833 0.462598 0.000000 314 6
0.897795 0.462672 0.000000 315 6
0.897798 0.462665 0.000000 316 6
0.897802 0.462658 0.000000 317 6
0.897805 0.462651 0.000000 318 6
0.897809 0.462644 0.000000 319 6
0.897812 0.462637 0.000000 320 6
0.897816 0.462630 0.000000 321 6
0.897778 0.462704 0.000000 322 6
0.897782 0.462697 0.000000 323 6
0.897785 0.462690 0.000000 324 6
0.897789 0.462683 0.000000 325 6
0.897792 0.462676 0.000000 326 6
0.897796 0.462669 0.000000 327 6
0.897799 0.462662 0.000000 328 6
0.897761 0.462736 0.000000 329 6
0.897765 0.462729 0.000000 330 6
0.897769 0.462722 0.000000 331 6
0.897772 0.462715 0.000000 332 6
0.897776 0.462708 0.000000 333 6
0.897779 0.462701 0.000000 334 6
0.897783 0.462694 0.000000 335 6
0.897745 0.462768 0.000000 336 6
0.897748 0.462761 0.000000 337 6
0.897752 0.462754 0.000000 338 6
0.897756 0.462747 0.000000 339 6
0.897759 0.462740 0.000000 340 6
0.897763 0.462733 0.000000 341 6
0.897766 0.462726 0.000000 342 6